# File produced by Open Asset Import Library (http://www.assimp.sf.net)
# (assimp v5.2.0)

mtllib Tree1.mtl

# 394 vertex positions
v  0.338891029 2.12323141 -0.158335328
v  0.787772059 2.28084946 0.167791992
v  0.167437166 2.28084922 0.369354308
v  1.1025784 2.70663023 0.396509528
v  1.23665571 2.62376475 -0.158335328
v  -0.215958536 2.28085208 -0.158335328
v  0.167437166 2.28084922 -0.686024964
v  0.787772059 2.28084946 -0.484462649
v  1.34262729 3.17862082 0.167793274
v  0.0471940637 2.70662975 0.739430785
v  0.616319954 2.62376308 0.695486903
v  0.338891029 3.17862082 0.897053838
v  -0.605076849 2.70663428 -0.158335328
v  -0.387416661 2.62376451 0.369356096
v  -0.664845228 3.17862082 0.167793274
v  0.0471940637 2.70662975 -1.05610144
v  -0.387416661 2.62376451 -0.686026752
v  -0.281451583 3.17862082 -1.01216292
v  1.1025784 2.70663023 -0.713180184
v  0.616319954 2.62376308 -1.01215756
v  0.959233642 3.17862082 -1.01216292
v  0.959233642 3.17862082 0.695492208
v  -0.281451583 3.17862082 0.695492208
v  -0.664845228 3.17862082 -0.48446393
v  0.338891029 3.17862082 -1.21372449
v  1.34262729 3.17862082 -0.48446393
v  0.630587995 3.65061188 0.739430785
v  1.06519866 3.73347712 0.369356096
v  0.510344863 4.07639217 0.369354308
v  -0.424796343 3.6506114 0.396509528
v  0.0614621043 3.73347855 0.695486903
v  -0.109989971 4.07639217 0.167791992
v  -0.424796343 3.6506114 -0.713180184
v  -0.558873594 3.73347688 -0.158335328
v  -0.109989971 4.07639217 -0.484462649
v  0.630587995 3.65061188 -1.05610144
v  0.0614621043 3.73347855 -1.01215756
v  0.510344863 4.07639217 -0.686024964
v  1.28285885 3.65060735 -0.158335328
v  1.06519866 3.73347712 -0.686026752
v  0.893740594 4.07638931 -0.158335328
v  0.338891029 4.23401022 -0.158335328
v  -2.98023224e-08 0.0104653835 -0.298883796
v  -2.98023224e-08 0.507525682 -0.24853012
v  0.175737321 0.507525682 -0.175737321
v  0.211342722 0.0104653835 -0.211342737
v  0.24853012 0.507525682 4.47034836e-08
v  0.298883796 0.0104653835 4.47034836e-08
v  0.175737321 0.507525682 0.175737381
v  0.211342722 0.0104653835 0.211342782
v  -5.96046448e-08 0.507525682 0.248530179
v  -5.96046448e-08 0.0104653835 0.298883855
v  -0.175737441 0.507525682 0.175737351
v  -0.211342871 0.0104653835 0.211342782
v  -0.248530209 0.507525682 2.98023224e-08
v  -0.298883855 0.0104653835 2.98023224e-08
v  -0.15309602 1.05455542 0.153095931
v  -0.216510415 1.05455542 2.98023224e-08
v  -0.211342871 0.0104653835 -0.211342737
v  -0.175737441 0.507525682 -0.175737306
v  -2.98023224e-08 1.05455542 0.216510385
v  0.0673598051 1.58704829 0.181209117
v  -0.0845119357 1.60071492 0.177114308
v  0.153095886 1.05455542 0.153095931
v  -0.15309602 1.05455542 -0.153095901
v  0.153095886 1.05455542 -0.153095901
v  0.216510296 1.05455542 2.98023224e-08
v  -2.98023224e-08 1.05455542 -0.216510326
v  -0.179773152 1.66924 -0.0791540071
v  -0.186877668 1.6347599 0.0692683607
v  -0.159300715 1.96456611 0.147205979
v  -0.152196109 1.99904609 -0.00121636689
v  0.186877593 1.63624597 -0.0692683235
v  0.179773003 1.60176587 0.0791540593
v  -0.0673598647 1.68395746 -0.181209058
v  0.0845117867 1.67029083 -0.177114248
v  -0.0569349229 1.93052125 0.255051911
v  -0.0329247713 2.42658544 0.534034014
v  -0.143608153 2.47577858 0.438605726
v  0.094936803 1.91685462 0.25914675
v  0.214454591 1.96605217 0.00866930187
v  0.207350001 1.93157184 0.157091707
v  -0.0397828519 2.01376343 -0.10327144
v  0.112088799 2.00009704 -0.0991766304
v  0.111466646 2.53751087 0.174577922
v  -0.0415080488 2.55421495 0.184431851
v  0.0826354027 3.09631586 0.581088841
v  0.198956177 3.07470751 0.599100828
v  0.2257054 2.43545151 0.414816201
v  0.120049968 2.40988135 0.524180114
v  0.222150087 2.48831773 0.270006269
v  -0.14716351 2.52864456 0.293795735
v  0.239763841 2.99388123 0.800842822
v  0.264040947 3.03227758 0.690125942
v  0.28971386 3.49191737 0.939466
v  0.213812917 3.50171328 1.03147125
v  -0.0167823434 3.084445 0.646641076
v  0.024025321 3.00361872 0.848383069
v  -0.0410594344 3.04604864 0.757357955
v  0.140346155 2.98201036 0.866395116
v  -0.00402998924 3.54634166 0.847007513
v  0.00610467792 3.54019713 0.966093302
v  0.0472196341 4.09696054 0.9706496
v  0.0418539345 4.100214 0.907600999
v  0.189345703 3.51654768 0.743972838
v  0.279579222 3.49806213 0.820380211
v  0.0718709528 3.53654575 0.75500226
v  0.0963381827 3.52171135 1.04250085
v  0.19200772 4.07465267 0.893503428
v  0.157188475 4.07658577 1.00526333
v  0.19737339 4.07139969 0.956552029
v  0.0949927717 4.08717346 1.01110268
v  0.0820388496 4.09502745 0.858889818
v  0.144234568 4.08443975 0.853050351
v  0.0544712543 2.02390242 0.291143
v  0.0370892584 2.1056118 0.561923981
v  -0.0666479468 2.13327861 0.551271081
v  -0.0702837408 2.05717468 0.278331786
v  -0.119383097 2.22512388 0.53068459
v  -0.133703351 2.16762829 0.253574401
v  -0.0902247131 2.32734561 0.51222384
v  -0.0986372828 2.29056072 0.23137337
v  0.00374668837 2.38006425 0.50670284
v  0.0143732429 2.35396028 0.22473371
v  0.107483894 2.35239744 0.51735568
v  0.139128238 2.32068825 0.237544924
v  0.160219043 2.26055217 0.537942111
v  0.202547833 2.21023464 0.262302309
v  0.0808545053 2.3976078 0.823699355
v  0.126795426 2.31759572 0.841633558
v  0.167481795 2.08730197 0.284503341
v  0.13106066 2.15833044 0.556402922
v  -0.00951758027 2.42171025 0.814418972
v  -0.0600427985 2.45516682 1.1134336
v  0.0252764225 2.46521282 1.12370491
v  -0.0913819671 2.37578392 0.819228649
v  0.1013937 2.22854376 0.857715845
v  -0.0708427727 2.20671964 0.853245258
v  -0.116783708 2.28673172 0.835310996
v  0.0195292532 2.18261743 0.862525582
v  0.0941216499 2.33793545 1.1916672
v  0.0891334116 2.41665411 1.15611017
v  0.0591009855 2.4934895 1.33042753
v  0.0640892386 2.41477108 1.36598444
v  -0.111857146 2.31368208 1.16687012
v  -0.116845399 2.39240074 1.13131332
v  0.0373190641 2.27516937 1.2095468
v  -0.0480001271 2.26512337 1.19927549
v  -0.00475600362 2.54204822 1.29802227
v  -0.0509522259 2.74817586 1.54249907
v  0.0163237751 2.708709 1.58206916
v  -0.0900752544 2.53200245 1.28775096
v  -0.141889572 2.39051771 1.34118736
v  -0.146877795 2.46923637 1.30563056
v  0.00728663802 2.352005 1.38386416
v  -0.078032583 2.341959 1.37359297
v  -0.11118713 2.55144024 1.64200163
v  -0.0262687206 2.56959605 1.65242815
v  -0.137981653 2.83855343 1.90796721
v  -0.204012871 2.8378644 1.89225304
v  -0.188687384 2.66487694 1.55689716
v  -0.135870636 2.73002005 1.53207242
v  -0.178463161 2.59090686 1.60243142
v  0.026548028 2.63473892 1.62760341
v  -0.238223195 2.93758202 1.82430363
v  -0.24553436 2.87888336 1.85759842
v  -0.120331138 2.98026443 1.82758653
v  -0.186362386 2.97957563 1.81187224
v  -0.0861207843 2.88054681 1.89553583
v  -0.0788097084 2.93924546 1.86224115
v  -0.0676575303 1.87390947 0.0594405234
v  -0.179172456 2.19441366 -0.131285414
v  -0.0924950838 2.14638329 -0.237479478
v  -0.0204691589 1.84776103 0.00162698328
v  0.0508612394 2.14615798 -0.260845184
v  0.0575760901 1.84763849 -0.0110936612
v  0.166920364 2.19386959 -0.187695205
v  0.120760337 1.87361348 0.0287302285
v  0.187696427 2.2615695 -0.060879834
v  0.132071137 1.91047013 0.0977703333
v  0.101019055 2.30959988 0.0453142226
v  0.0848827362 1.93661857 0.155583858
v  -0.0423372686 2.30982494 0.0686799139
v  0.00683751702 1.93674111 0.168304503
v  0.0577991009 2.66864538 -0.165152237
v  -0.0670876503 2.6688416 -0.144796908
v  -0.0563467145 1.91076612 0.128480613
v  -0.158396363 2.26211333 -0.00447002053
v  0.133309245 2.62680316 -0.257664621
v  0.0899472684 2.95959353 -0.494461507
v  0.0576807857 3.01827979 -0.399161518
v  0.115209877 2.56782556 -0.368141562
v  -0.168194115 2.6272769 -0.208522439
v  -0.110783309 2.52645707 -0.411511719
v  0.0141034424 2.52626085 -0.431867063
v  -0.186293483 2.56829929 -0.31899941
v  -0.153178871 3.06131697 -0.396389723
v  -0.0430253446 3.06041503 -0.358538866
v  0.00112754107 3.28467369 -0.481689453
v  -0.109025985 3.28557539 -0.51954031
v  -0.0752808154 2.91963553 -0.626464367
v  0.0348727405 2.9187336 -0.588613391
v  -0.208253443 3.02045703 -0.490541667
v  -0.175986946 2.96177053 -0.585841656
v  0.101833656 3.24253845 -0.522312045
v  0.284357071 3.60745358 -0.673051417
v  0.190404862 3.66423917 -0.630479515
v  0.134100154 3.18385196 -0.617612064
v  -0.0311278999 3.14389396 -0.749614835
v  0.079025656 3.14299202 -0.711763978
v  -0.164100528 3.24471545 -0.613692164
v  -0.13183406 3.1860292 -0.708992183
v  0.0398877561 3.58628392 -0.858674288
v  0.0175389647 3.64926982 -0.761734724
v  0.303102225 4.02821398 -0.978368461
v  0.339421391 3.97774839 -1.04533756
v  0.244359642 3.51217723 -0.864512205
v  0.306705892 3.54446745 -0.769990981
v  0.13383998 3.5294981 -0.901246071
v  0.0798852146 3.68156004 -0.667213261
v  0.500518084 3.93696404 -1.01540971
v  0.421193689 3.93995142 -1.06068063
v  0.494608045 4.02100182 -0.869074762
v  0.5309273 3.97053623 -0.936043859
v  0.333511502 4.06178617 -0.899002731
v  0.412835717 4.05879879 -0.853731751
v  0.186180979 2.426615 0.841656625
v  0.588427961 2.56785822 1.13390279
v  0.0325393677 2.56785798 1.31452489
v  0.870529294 2.94940472 1.33885896
v  0.990677357 2.8751483 0.841656625
v  -0.31102556 2.5678606 0.841656625
v  0.0325393677 2.56785798 0.368788362
v  0.588427961 2.56785822 0.549410522
v  1.08563972 3.37236047 1.13390398
v  -0.0752117336 2.94940448 1.64615428
v  0.434787989 2.87514663 1.60677576
v  0.186180979 3.37236047 1.78740203
v  -0.659718573 2.94940829 0.841656625
v  -0.464670956 2.87514782 1.31452656
v  -0.713277698 3.37236047 1.13390398
v  -0.0752117336 2.94940448 0.037158981
v  -0.464670956 2.87514782 0.368786812
v  -0.369714558 3.37236047 0.0765327811
v  0.870529294 2.94940472 0.344454288
v  0.434787989 2.87514663 0.0765375644
v  0.742076576 3.37236047 0.0765327811
v  0.742076576 3.37236047 1.60678053
v  -0.369714558 3.37236047 1.60678053
v  -0.713277698 3.37236047 0.54940933
v  0.186180979 3.37236047 -0.104088753
v  1.08563972 3.37236047 0.54940933
v  0.447573692 3.7953167 1.64615428
v  0.837032914 3.86957312 1.31452656
v  0.339822561 4.17686319 1.31452489
v  -0.498167336 3.79531646 1.33885896
v  -0.0624260008 3.86957455 1.60677576
v  -0.216066062 4.17686272 1.13390279
v  -0.498167336 3.79531646 0.344454288
v  -0.618315339 3.86957288 0.841656625
v  -0.216066062 4.17686272 0.549410522
v  0.447573692 3.7953167 0.037158981
v  -0.0624260008 3.86957455 0.0765375644
v  0.339822561 4.17686319 0.368788362
v  1.03208053 3.79531264 0.841656625
v  0.837032914 3.86957312 0.368786812
v  0.683387518 4.17686033 0.841656625
v  0.186180979 4.31810617 0.841656625
v  -0.231372535 2.40408254 1.62455368
v  0.0389147103 2.49899006 1.82092655
v  -0.334610999 2.49898982 1.94229448
v  0.228470847 2.75536776 1.95864546
v  0.309203565 2.70547152 1.62455368
v  -0.565467238 2.49899173 1.62455368
v  -0.334610999 2.49898982 1.306813
v  0.0389147103 2.49899006 1.42818093
v  0.373012871 3.03957009 1.8209275
v  -0.407013714 2.75536752 2.16513062
v  -0.0643226802 2.70547032 2.13867044
v  -0.231372535 3.03957009 2.26004124
v  -0.799769282 2.75537014 1.62455368
v  -0.668708324 2.70547128 1.94229543
v  -0.835757971 3.03957009 1.8209275
v  -0.407013714 2.75536752 1.08397663
v  -0.668708324 2.70547128 1.30681193
v  -0.604902983 3.03957009 1.1104337
v  0.228470847 2.75536776 1.2904619
v  -0.0643226802 2.70547032 1.11043704
v  0.142157853 3.03957009 1.1104337
v  0.142157853 3.03957009 2.13867378
v  -0.604902983 3.03957009 2.13867378
v  -0.835757971 3.03957009 1.42817998
v  -0.231372535 3.03957009 0.989066243
v  0.373012871 3.03957009 1.42817998
v  -0.0557314157 3.32377267 2.16513062
v  0.205963224 3.37366891 1.94229543
v  -0.128134072 3.58015037 1.94229448
v  -0.691215873 3.32377267 1.95864546
v  -0.39842242 3.37366986 2.13867044
v  -0.501659811 3.58015037 1.82092655
v  -0.691215873 3.32377267 1.2904619
v  -0.771948695 3.37366867 1.62455368
v  -0.501659811 3.58015037 1.42818093
v  -0.0557314157 3.32377267 1.08397663
v  -0.39842242 3.37366986 1.11043704
v  -0.128134072 3.58015037 1.306813
v  0.337024152 3.32377005 1.62455368
v  0.205963224 3.37366891 1.30681193
v  0.102722168 3.5801487 1.62455368
v  -0.231372535 3.67505765 1.62455368
v  -0.0349943042 2.20994091 1.29632986
v  0.0983580649 2.2567656 1.39321482
v  -0.0859293342 2.2567656 1.45309448
v  0.191879883 2.38325548 1.46116161
v  0.231711209 2.35863805 1.29632986
v  -0.199827552 2.25676632 1.29632986
v  -0.0859293342 2.2567656 1.13956511
v  0.0983580649 2.2567656 1.19944489
v  0.263192952 2.52347326 1.3932153
v  -0.121650845 2.38325524 1.56303573
v  0.0474235713 2.35863733 1.54998112
v  -0.0349943042 2.52347326 1.60986197
v  -0.315425694 2.38325667 1.29632986
v  -0.250763774 2.35863781 1.45309496
v  -0.33318156 2.52347326 1.3932153
v  -0.121650845 2.38325524 1.02962387
v  -0.250763774 2.35863781 1.13956463
v  -0.219283998 2.52347326 1.04267704
v  0.191879883 2.38325548 1.13149798
v  0.0474235713 2.35863733 1.04267859
v  0.149295419 2.52347326 1.04267704
v  0.149295419 2.52347326 1.54998255
v  -0.219283998 2.52347326 1.54998255
v  -0.33318156 2.52347326 1.19944429
v  -0.0349943042 2.52347326 0.982797623
v  0.263192952 2.52347326 1.19944429
v  0.0516622663 2.66369104 1.56303573
v  0.18077524 2.68830848 1.45309496
v  0.0159407556 2.79018068 1.45309448
v  -0.261868477 2.66369081 1.46116161
v  -0.11741215 2.68830872 1.54998112
v  -0.168346643 2.79018068 1.39321482
v  -0.261868477 2.66369081 1.13149798
v  -0.301699817 2.68830824 1.29632986
v  -0.168346643 2.79018068 1.19944489
v  0.0516622663 2.66369104 1.02962387
v  -0.11741215 2.68830872 1.04267859
v  0.0159407556 2.79018068 1.13956511
v  0.245437115 2.66368961 1.29632986
v  0.18077524 2.68830848 1.13956463
v  0.129838914 2.79017973 1.29632986
v  -0.0349943042 2.83700538 1.29632986
v  0.230880231 3.14930582 -0.830904245
v  0.45352751 3.22748494 -0.669143379
v  0.145838231 3.22748494 -0.569167495
v  0.609673142 3.43867445 -0.555698335
v  0.676176131 3.39757276 -0.830904245
v  -0.0443280339 3.22748637 -0.830904245
v  0.145838231 3.22748494 -1.092641
v  0.45352751 3.22748494 -0.992665052
v  0.728738546 3.67278433 -0.669142783
v  0.0861970484 3.43867421 -0.38560763
v  0.368486404 3.3975718 -0.407404006
v  0.230880231 3.67278433 -0.307425737
v  -0.237332702 3.43867636 -0.830904245
v  -0.12937212 3.39757252 -0.569166601
v  -0.266978085 3.67278433 -0.669142783
v  0.0861970484 3.43867421 -1.27620077
v  -0.12937212 3.39757252 -1.09264183
v  -0.0768128932 3.67278433 -1.25440717
v  0.609673142 3.43867445 -1.1061101
v  0.368486404 3.3975718 -1.25440443
v  0.538573384 3.67278433 -1.25440717
v  0.538573384 3.67278433 -0.407401383
v  -0.0768128932 3.67278433 -0.407401383
v  -0.266978085 3.67278433 -0.992665708
v  0.230880231 3.67278433 -1.35438263
v  0.728738546 3.67278433 -0.992665708
v  0.375563413 3.90689421 -0.38560763
v  0.591132641 3.9479959 -0.569166601
v  0.31592223 4.11808348 -0.569167495
v  -0.147912621 3.90689421 -0.555698335
v  0.0932740569 3.94799662 -0.407404006
v  0.00823295116 4.11808348 -0.669143379
v  -0.147912621 3.90689421 -1.1061101
v  -0.214415669 3.94799566 -0.830904245
v  0.00823295116 4.11808348 -0.992665052
v  0.375563413 3.90689421 -1.27620077
v  0.0932740569 3.94799662 -1.25440443
v  0.31592223 4.11808348 -1.092641
v  0.699093103 3.90689206 -0.830904245
v  0.591132641 3.9479959 -1.09264183
v  0.506088495 4.11808205 -0.830904245
v  0.230880231 4.19626284 -0.830904245

# 61 UV coordinates
vt 0.771960974 0.837082982 0
vt 0.817813993 0.837082982 0
vt 0.817813993 0.882936001 0
vt 0.830051005 0.827582002 0
vt 0.884019971 0.827582002 0
vt 0.884019971 0.881551027 0
vt 0.833809018 0.902221024 0
vt 0.807075024 0.699750006 0
vt 0.807075024 0.872601986 0
vt 0.0266270004 0.73912698 0
vt 0.254622996 0.73912698 0
vt 0.254622996 0.967122972 0
vt 0.0266270004 0.967122972 0
vt 0.140625 0.967122972 0
vt 0.0266270004 0.853124976 0
vt 0.0600159988 0.933734 0
vt 0.140625 0.73912698 0
vt 0.0600159988 0.772516012 0
vt 0.254622996 0.853124976 0
vt 0.221233994 0.772516012 0
vt 0.221233994 0.933734 0
vt 0.0757780001 0.826170027 0
vt 0.131373003 0.826170027 0
vt 0.131373003 0.881766021 0
vt 0.0757780001 0.881766021 0
vt 0.0965790004 0.852304995 0
vt 0.107524998 0.852304995 0
vt 0.107524998 0.863250971 0
vt 0.0965790004 0.863250971 0
vt 0.102052003 0.863250971 0
vt 0.0965790004 0.857778013 0
vt 0.0981820002 0.861648023 0
vt 0.102052003 0.852304995 0
vt 0.0981820002 0.853908002 0
vt 0.107524998 0.857778013 0
vt 0.105921999 0.853908002 0
vt 0.105921999 0.861648023 0
vt 0.102811001 0.844256997 0
vt 0.141822994 0.844256997 0
vt 0.141822994 0.883269012 0
vt 0.102811001 0.883269012 0
vt 0.122317001 0.883269012 0
vt 0.102811001 0.863762975 0
vt 0.108524002 0.877555013 0
vt 0.122317001 0.844256997 0
vt 0.108524002 0.849969983 0
vt 0.141822994 0.863762975 0
vt 0.136109993 0.849969983 0
vt 0.136109993 0.877555013 0
vt 0.84196502 0.826572001 0
vt 0.889436007 0.826572001 0
vt 0.889436007 0.874041975 0
vt 0.840072989 0.823459029 0
vt 0.881565988 0.823459029 0
vt 0.881565988 0.864952981 0
vt 0.824880004 0.853004992 0
vt 0.887619972 0.853004992 0
vt 0.887619972 0.91574502 0
vt 0.844565988 0.850816011 0
vt 0.867933989 0.850816011 0
vt 0.867933989 0.874184012 0

# 392 vertex normals
vn -1.78638925e-06 -0.99999994 -0
vn 0.42532444 -0.850652039 0.309014887
vn -0.162458792 -0.850652575 0.499997288
vn 0.723607719 -0.447214663 0.525728881
vn 0.850649953 -0.525732517 -4.00666256e-09
vn -0.52572912 -0.850651979 8.01332423e-09
vn -0.162458777 -0.850652575 -0.499997288
vn 0.42532444 -0.850652039 -0.309014887
vn 0.951056063 -1.84304298e-07 0.309018344
vn -0.276391536 -0.44721657 0.850649774
vn 0.262868822 -0.525732696 0.809014916
vn 0 -8.01316613e-09 1
vn -0.894426465 -0.44721511 1.0178713e-08
vn -0.688189745 -0.52573216 0.500000656
vn -0.951056063 2.72449824e-07 0.309018344
vn -0.276391536 -0.44721657 -0.850649774
vn -0.688189745 -0.52573216 -0.500000596
vn -0.587786734 -4.06666913e-07 -0.80901593
vn 0.723607719 -0.447214723 -0.525728822
vn 0.262868792 -0.525732696 -0.809014916
vn 0.587786794 4.28703061e-07 -0.80901593
vn 0.587786734 4.32709641e-07 0.80901593
vn -0.587786734 -4.12676769e-07 0.80901593
vn -0.951056063 2.64436551e-07 -0.309018314
vn 0 -8.01316613e-09 -1
vn 0.951056063 -1.80297675e-07 -0.309018344
vn 0.276391536 0.44721663 0.850649714
vn 0.688189745 0.525732219 0.500000536
vn 0.162458852 0.850652575 0.499997199
vn -0.723607779 0.447214693 0.525728881
vn -0.262868762 0.525732756 0.809014916
vn -0.425324291 0.850652039 0.309014916
vn -0.723607719 0.447214723 -0.525728822
vn -0.850649953 0.525732517 0
vn -0.425324291 0.850652039 -0.309014887
vn 0.276391536 0.44721666 -0.850649774
vn -0.262868732 0.525732756 -0.809014916
vn 0.162458837 0.850652575 -0.499997169
vn 0.894426405 0.447215229 0
vn 0.688189745 0.525732279 -0.500000536
vn 0.52572912 0.850652039 0
vn 2.06630784e-06 0.99999994 -5.08942799e-09
vn 0.07225696 -0.801200032 -0.594017863
vn -0.138902292 0.0790332779 -0.987147331
vn 0.599799871 0.0790332779 -0.79623729
vn 0.787109852 -0.0229196157 -0.61638695
vn 0.987147331 0.0790333077 -0.138902321
vn 0.79694432 -0.596223295 0.0969411582
vn 0.79623723 0.0790333003 0.599799991
vn 0.61638689 -0.0229196008 0.787109852
vn 0.138902277 0.0790332854 0.987147331
vn -0.0722569898 -0.801200032 0.594017863
vn -0.599799812 0.0790332928 0.79623723
vn -0.787109792 -0.0229196306 0.61638689
vn -0.987147331 0.079033263 0.138902217
vn -0.79694432 -0.596223295 -0.0969411135
vn -0.681098938 0.0625422224 0.729515314
vn -0.997605741 0.0586263798 0.0366845541
vn -0.61638695 -0.0229196176 -0.787109852
vn -0.79623735 0.0790332854 -0.599799871
vn 0.0305432249 0.0650833547 0.997412264
vn 0.235496134 -0.0875160471 0.967926919
vn -0.52389431 -0.07214012 0.848722935
vn 0.728084505 0.0616791137 0.682706833
vn -0.733399034 0.0589946285 -0.677233636
vn 0.67132026 0.0587591194 -0.7388345
vn 0.997478962 0.0578883253 -0.0410443954
vn -0.0455109216 0.0603582114 -0.997138798
vn -0.845471203 0.0608598143 -0.530541837
vn -0.974545062 -0.00975848641 0.22397922
vn -0.924367964 -0.125595689 0.360235542
vn -0.922077537 0.168914944 -0.348196536
vn 0.971461117 0.0189873073 -0.236437619
vn 0.85410136 -0.0491878949 0.517775476
vn -0.226479664 0.0964933336 -0.969224393
vn 0.521341443 0.0786790326 -0.849713326
vn -0.389310807 -0.345677227 0.853782475
vn -0.419589788 -0.426276535 0.801394224
vn -0.935407519 -0.105425738 0.337487817
vn 0.373248249 -0.363983244 0.85334754
vn 0.922421873 0.126236752 -0.364968568
vn 0.922536552 -0.167266235 0.347776443
vn -0.377026826 0.361628532 -0.85268724
vn 0.383357018 0.342470199 -0.857759655
vn 0.421123862 0.468586981 -0.776582837
vn -0.32262677 0.525896013 -0.786984921
vn -0.100912005 0.515762091 -0.85076803
vn 0.617814839 0.359967411 -0.699091077
vn 0.905911744 -0.243327528 0.346576899
vn 0.333700299 -0.485559314 0.808007538
vn 0.934335589 0.15899244 -0.318964571
vn -0.896087527 0.29481557 -0.331829906
vn 0.780973017 -0.316644758 0.538346648
vn 0.991351187 0.0137144122 -0.130517706
vn 0.971133649 -0.000792281062 0.238534912
vn 0.512067676 -0.125218719 0.849768758
vn -0.769547105 0.393659472 -0.502821445
vn -0.610715389 -0.275310993 0.742448986
vn -0.98438096 0.0615119897 0.16495572
vn 0.113665275 -0.429762095 0.895759225
vn -0.96440661 0.131341845 -0.229497835
vn -0.85950017 -0.0260711256 0.510470271
vn -0.904806018 0.316827297 0.284511
vn -0.86567384 0.146161497 -0.478795916
vn 0.269353062 0.262900174 -0.926462352
vn 0.859306574 0.159536928 -0.485942513
vn -0.491090596 0.252278268 -0.833777845
vn -0.254642278 -0.13285692 0.957865536
vn 0.899137616 0.376509994 -0.223140448
vn 0.310826927 0.211605877 0.9266119
vn 0.87281245 0.14540787 0.46589157
vn -0.473490208 0.0692456216 0.878072917
vn -0.222549304 0.320297211 -0.920804858
vn 0.505435348 0.221057221 -0.834067643
vn 0.0383889489 -0.740533948 -0.670921564
vn 0.250574201 -0.928394616 0.274401248
vn -0.504603982 -0.83537674 0.217992321
vn -0.706572175 -0.703328967 0.0780000314
vn -0.966490924 -0.244154543 0.0792708471
vn -0.772209108 -0.119778223 -0.623976111
vn -0.86452055 0.498942584 -0.0605024435
vn -0.703243792 0.684390545 -0.192504153
vn -0.258425772 0.958617628 -0.119450063
vn 0.0412059352 0.43414706 -0.899899185
vn 0.496752322 0.865599811 -0.0630408525
vn 0.708848774 0.694564641 -0.122936212
vn 0.958639383 0.274377584 0.0756806806
vn 0.831441283 -0.108223647 -0.544970751
vn 0.586089849 0.807710826 -0.0640454814
vn 0.982113719 0.172283843 0.0759660006
vn 0.705521166 -0.693154812 0.147568405
vn 0.856668949 -0.468719393 0.215453729
vn -0.151481822 0.979560077 -0.132345721
vn -0.343674928 0.895923853 -0.281439006
vn 0.422775298 0.878249586 -0.223469689
vn -0.805874169 0.58489573 -0.091998823
vn 0.804502964 -0.555827022 0.209359184
vn -0.581314683 -0.792361021 0.185033426
vn -0.987260044 -0.154233739 0.0391094573
vn 0.160063401 -0.953427613 0.255647182
vn 0.898208022 -0.398586392 0.185340524
vn 0.940490067 0.338636398 -0.028349461
vn 0.880366981 0.442824453 -0.169883773
vn 0.947249115 -0.190790862 0.257522613
vn -0.936416686 -0.348612219 0.0399161167
vn -0.905836761 0.387306184 -0.17162025
vn 0.334441185 -0.896603286 0.290261328
vn -0.420450866 -0.87764281 0.230139449
vn 0.302292734 0.81396091 -0.496071339
vn 0.342521787 0.751356483 -0.564041138
vn 0.893003821 0.425924063 -0.145371497
vn -0.453005493 0.714211643 -0.533561289
vn -0.877909184 -0.447064668 0.171489283
vn -0.947736382 0.190639719 -0.255836099
vn 0.456791908 -0.713544309 0.531220853
vn -0.295758307 -0.817697763 0.493859828
vn -0.349078238 -0.719306111 0.600618839
vn 0.386911333 -0.625012338 0.677981734
vn 0.130603671 -0.611274421 0.780567884
vn -0.54693383 -0.328938544 0.769845963
vn -0.927329063 0.177017704 -0.329735458
vn -0.402383804 0.651797891 -0.64284265
vn -0.896791935 -0.397515476 0.194282293
vn 0.913284421 -0.154051811 0.377067357
vn -0.848389626 0.474583626 -0.234532237
vn -0.975984037 -0.208542168 0.0629711375
vn 0.424568623 0.905077219 -0.0240133982
vn -0.183886483 0.754873395 -0.629564881
vn 0.648647249 -0.116753869 0.75208056
vn 0.9372859 0.323910505 0.128752932
vn -0.695910156 -0.717727602 -0.0240038615
vn -0.980141997 -0.189501286 -0.0584033802
vn -0.59337604 -0.467719048 -0.655090511
vn -0.303525805 -0.667627931 -0.679812491
vn 0.143940672 -0.507513523 -0.849535704
vn 0.416338325 -0.744092464 -0.522483408
vn 0.799898326 -0.285573691 -0.527835488
vn 0.927533567 -0.315643281 -0.200126812
vn 0.990245581 0.0680912063 0.121562362
vn 0.780242741 -0.29566583 0.551183164
vn 0.603479445 0.346309006 0.718249619
vn 0.341139793 0.215632334 0.914946079
vn -0.133837372 0.386103511 0.912694752
vn -0.350295246 -0.0495186746 0.935329378
vn 0.533290207 0.478107452 0.697864413
vn -0.213818327 0.488538176 0.845938563
vn -0.889919341 -0.136352405 0.435260385
vn -0.789794743 0.164163604 0.590994596
vn 0.966791034 0.220887706 0.12854439
vn 0.999852121 -0.00771680428 0.015369622
vn 0.697031856 0.312253147 0.645480096
vn 0.834132671 -0.138594031 -0.533867359
vn -0.839031935 0.248618156 0.483957022
vn -0.553630173 -0.368220359 -0.746931911
vn 0.200994685 -0.386170715 -0.900262952
vn -0.979437709 -0.10340295 -0.173233062
vn -0.724898458 0.324549884 0.60760963
vn -0.0220848788 0.451230705 0.892133951
vn 0.130467564 0.351217598 0.927159369
vn -0.575412631 0.485446483 0.658211172
vn 0.00860635657 -0.443940192 -0.896014988
vn 0.713818848 -0.320203453 -0.622842252
vn -0.999553204 0.0115416814 -0.0275701396
vn -0.699097574 -0.30554235 -0.646456897
vn 0.755108654 0.0131072262 0.655468643
vn 0.702970028 -0.0544137806 0.709134877
vn 0.104284495 0.369798094 0.923241079
vn 0.943281472 -0.331989646 0.00176325045
vn -0.135567933 -0.350648701 -0.926642776
vn 0.574998021 -0.484260112 -0.659446239
vn -0.943397701 0.331652343 0.00272330293
vn -0.760178864 -0.0140810823 -0.649561286
vn -0.681726217 0.0955756754 -0.725337625
vn -0.8786273 0.465152442 -0.107922286
vn -0.803014338 0.4641608 -0.373794973
vn -0.307199091 0.321009189 -0.895869255
vn 0.575356364 -0.544597507 -0.61022836
vn 0.898696721 -0.430520684 0.0836434066
vn -0.0905871317 -0.31866622 -0.943528354
vn -0.562481046 0.588523567 0.580736816
vn 0.78852278 -0.317918062 -0.526459873
vn 0.141949669 -0.383430988 -0.912595689
vn 0.667017162 0.491805494 0.559656501
vn 0.910110414 -0.299276471 0.286587745
vn -0.535768747 0.82368803 0.185714647
vn -0.0762201622 0.576797068 0.813323796
vn -1.79996539e-06 -1 -0
vn 0.42532438 -0.850652099 0.309014767
vn -0.162458748 -0.850652635 0.499997258
vn 0.723607659 -0.447214842 0.525728762
vn 0.850649893 -0.525732636 0
vn -0.525729001 -0.850652158 -0
vn -0.162458748 -0.850652635 -0.499997258
vn 0.42532438 -0.850652099 -0.309014767
vn 0.951056004 -2.29515621e-07 0.309018373
vn -0.276391447 -0.44721666 0.850649774
vn 0.262868732 -0.525732815 0.809014916
vn -4.9894302e-09 0 0.99999994
vn -0.894426346 -0.44721517 -0
vn -0.688189626 -0.52573216 0.500000656
vn -0.951056063 2.64441837e-07 0.309018344
vn -0.276391536 -0.44721666 -0.850649774
vn -0.688189626 -0.52573216 -0.500000656
vn -0.587786734 -4.64015528e-07 -0.80901593
vn 0.723607719 -0.447214812 -0.525728822
vn 0.262868762 -0.525732756 -0.809014916
vn 0.587786794 4.69004988e-07 -0.80901587
vn 0.587786674 4.2410025e-07 0.80901593
vn -0.587786734 -4.29089653e-07 0.809016049
vn -0.951056063 2.39494511e-07 -0.309018373
vn -3.11839399e-09 -4.9894302e-09 -0.99999994
vn 0.951056063 -2.04568281e-07 -0.309018373
vn 0.276391566 0.4472166 0.850649774
vn 0.688189745 0.52573216 0.500000536
vn 0.162458792 0.850652695 0.499997139
vn -0.723607779 0.447214752 0.525728822
vn -0.262868762 0.525732636 0.809014916
vn -0.42532447 0.850652099 0.309014648
vn -0.723607719 0.447214752 -0.525728822
vn -0.850650012 0.525732517 0
vn -0.42532441 0.850652218 -0.309014648
vn 0.276391655 0.4472166 -0.850649774
vn -0.262868792 0.525732636 -0.809014916
vn 0.162458837 0.850652635 -0.499997228
vn 0.688189745 0.52573216 -0.500000536
vn 0.525729239 0.850651979 0
vn 1.67954488e-06 1 -1.26758106e-08
vn -1.82132624e-06 -1 -0
vn 0.425324529 -0.850652099 0.309014738
vn -0.162458837 -0.850652635 0.499997109
vn 0.723607719 -0.447214901 0.525728822
vn 0.850649953 -0.525732577 0
vn -0.52572906 -0.850652099 -0
vn -0.162458718 -0.850652695 -0.499997079
vn 0.42532447 -0.850652099 -0.309014767
vn 0.951056004 -2.43114897e-07 0.309018344
vn -0.276391566 -0.447216749 0.850649774
vn 0.262868851 -0.525732815 0.809014797
vn -5.525294e-09 2.762647e-09 1
vn -0.894426346 -0.447215199 -0
vn -0.688189626 -0.525732338 0.500000536
vn -0.951056004 3.12181555e-07 0.309018403
vn -0.276391476 -0.44721669 -0.850649774
vn -0.688189685 -0.525732279 -0.500000536
vn -0.587786734 -2.04435239e-07 -0.809015989
vn 0.723607659 -0.447214842 -0.525728881
vn 0.262868911 -0.525732756 -0.809014797
vn 0.587786734 2.48637491e-07 -0.80901593
vn 0.587786734 3.95057356e-07 0.80901593
vn -0.587786734 -3.53617708e-07 0.809015989
vn -0.951056004 3.14944202e-07 -0.309018403
vn -5.525294e-09 0 -1
vn 0.951056004 -2.56928246e-07 -0.309018344
vn 0.276391566 0.447216719 0.850649774
vn 0.688189626 0.52573216 0.500000656
vn 0.162458897 0.850652575 0.499997348
vn -0.723607719 0.447214752 0.525728822
vn -0.262868702 0.525732696 0.809014976
vn -0.425324351 0.850652099 0.309014827
vn -0.7236076 0.447214723 -0.525728881
vn -0.850650012 0.525732398 2.76270207e-09
vn -0.425324291 0.850652099 -0.309014827
vn 0.276391506 0.44721669 -0.850649774
vn -0.262868732 0.525732696 -0.809014857
vn 0.162458807 0.850652575 -0.499997288
vn 0.894426405 0.44721505 0
vn 0.688189745 0.5257321 -0.500000656
vn 0.52572912 0.850652039 -2.76270296e-09
vn 1.99679107e-06 1 -7.0185977e-09
vn -1.73722879e-06 -1 -0
vn 0.4253245 -0.850652099 0.309014708
vn -0.162458733 -0.850652754 0.499997169
vn 0.723607957 -0.447214365 0.525728762
vn 0.850650132 -0.52573216 0
vn -0.52572906 -0.850652158 -0
vn -0.162458584 -0.850652754 -0.49999705
vn 0.425324559 -0.850652099 -0.309014678
vn 0.951056123 -2.56783579e-07 0.309018314
vn -0.276391894 -0.447216094 0.850649953
vn 0.262868971 -0.525732338 0.809015036
vn 4.53978224e-08 0 1
vn -0.894426644 -0.447214752 -0
vn -0.688189864 -0.525731742 0.500000775
vn -0.951056004 1.30519837e-07 0.309018463
vn -0.276391625 -0.447216183 -0.850649893
vn -0.688189864 -0.525731862 -0.500000596
vn -0.587786674 -4.42627567e-07 -0.80901593
vn 0.723607898 -0.447214603 -0.525728703
vn 0.26286903 -0.525732458 -0.809014976
vn 0.587786615 3.85880298e-07 -0.809016049
vn 0.587786674 5.58958959e-07 0.809016049
vn -0.587786674 -6.10031577e-07 0.80901587
vn -0.951056004 1.1349546e-07 -0.309018373
vn 3.97230941e-08 5.6747278e-09 -1
vn 0.951056123 -2.58202249e-07 -0.309018254
vn 0.276391566 0.447216511 0.850649774
vn 0.688189745 0.525732338 0.500000477
vn 0.162458703 0.850652754 0.499997169
vn -0.7236076 0.447214812 0.525728822
vn -0.262868911 0.525732756 0.809014916
vn -0.42532447 0.850651979 0.309015095
vn -0.72360754 0.44721508 -0.525728822
vn -0.850649953 0.525732577 0
vn -0.42532447 0.850652039 -0.309015036
vn 0.276391357 0.44721669 -0.850649834
vn -0.262868971 0.525732815 -0.809014738
vn 0.162458569 0.850652814 -0.49999705
vn 0.894426346 0.447215319 0
vn 0.688189745 0.525732398 -0.500000238
vn 0.525729001 0.850652158 -5.67484237e-09
vn 2.31390254e-06 1 0
vn -2.06869572e-06 -1 -0
vn 0.425324231 -0.850652218 0.309014738
vn -0.162458837 -0.850652814 0.49999702
vn 0.723607838 -0.447214484 0.525728881
vn 0.850650132 -0.525732279 0
vn -0.525728762 -0.850652277 -0
vn -0.162458822 -0.850652695 -0.499997109
vn 0.425324291 -0.850652218 -0.309014738
vn 0.951056123 -2.03570664e-07 0.309018224
vn -0.276391596 -0.44721657 0.850649774
vn 0.262868762 -0.525732636 0.809014916
vn 1.22141417e-08 0 1
vn -0.894426584 -0.447214872 -0
vn -0.688189745 -0.52573204 0.500000656
vn -0.951056063 2.48356145e-07 0.309018344
vn -0.276391506 -0.4472166 -0.850649834
vn -0.688189805 -0.5257321 -0.500000715
vn -0.587786674 -4.60064456e-07 -0.80901587
vn 0.723607719 -0.447214544 -0.525728822
vn 0.262868702 -0.525732636 -0.809015036
vn 0.587786615 4.60064541e-07 -0.80901593
vn 0.587786794 4.41743396e-07 0.80901587
vn -0.587786734 -4.47850312e-07 0.80901581
vn -0.951056123 2.44284763e-07 -0.309018373
vn 8.14276113e-09 -8.14276113e-09 -1
vn 0.951056123 -1.8932073e-07 -0.309018224
vn 0.276391536 0.447216809 0.850649655
vn 0.688189745 0.525732279 0.500000536
vn -0.723607779 0.447214693 0.525728762
vn -0.262868583 0.525732756 0.809014857
vn -0.425324231 0.850652158 0.309014738
vn -0.723607779 0.447214752 -0.525728762
vn -0.850650012 0.525732458 -4.07146272e-09
vn -0.425324231 0.850652158 -0.309014797
vn 0.276391447 0.447216749 -0.850649714
vn -0.262868524 0.525732815 -0.809014976
vn 0.162458867 0.850652575 -0.499997199
vn 0.894426465 0.44721505 -2.58583421e-09
vn 0.688189685 0.525732279 -0.500000596
vn 0.525728941 0.850652158 -2.03573158e-09
vn 2.08421102e-06 1 0

# Mesh '0' with 756 faces
g 0
usemtl Material.001
f  1/1/1 2/2/2 3/3/3
f  4/4/4 2/5/2 5/6/5
f  1/1/1 3/2/3 6/3/6
f  1/1/1 6/2/6 7/3/7
f  1/1/1 7/2/7 8/3/8
f  4/7/4 5/8/5 9/9/9
f  10/1/10 11/2/11 12/3/12
f  13/1/13 14/2/14 15/3/15
f  16/1/16 17/2/17 18/3/18
f  19/1/19 20/2/20 21/3/21
f  4/1/4 9/2/9 22/3/22
f  10/1/10 12/2/12 23/3/23
f  13/1/13 15/2/15 24/3/24
f  16/1/16 18/2/18 25/3/25
f  19/1/19 21/2/21 26/3/26
f  27/1/27 28/2/28 29/3/29
f  30/1/30 31/2/31 32/3/32
f  33/1/33 34/2/34 35/3/35
f  36/1/36 37/2/37 38/3/38
f  39/1/39 40/2/40 41/3/41
f  41/1/41 38/2/38 42/3/42
f  41/1/41 40/2/40 38/3/38
f  40/1/40 36/2/36 38/3/38
f  38/1/38 35/2/35 42/3/42
f  38/1/38 37/2/37 35/3/35
f  37/1/37 33/2/33 35/3/35
f  35/1/35 32/2/32 42/3/42
f  35/1/35 34/2/34 32/3/32
f  34/1/34 30/2/30 32/3/32
f  32/1/32 29/2/29 42/3/42
f  32/1/32 31/2/31 29/3/29
f  31/1/31 27/2/27 29/3/29
f  29/1/29 41/2/41 42/3/42
f  29/1/29 28/2/28 41/3/41
f  28/1/28 39/2/39 41/3/41
f  26/1/26 40/2/40 39/3/39
f  26/1/26 21/2/21 40/3/40
f  21/1/21 36/2/36 40/3/40
f  25/1/25 37/2/37 36/3/36
f  25/1/25 18/2/18 37/3/37
f  18/1/18 33/2/33 37/3/37
f  24/1/24 34/2/34 33/3/33
f  24/1/24 15/2/15 34/3/34
f  15/1/15 30/2/30 34/3/34
f  23/1/23 31/2/31 30/3/30
f  23/1/23 12/2/12 31/3/31
f  12/1/12 27/2/27 31/3/31
f  22/1/22 28/2/28 27/3/27
f  22/1/22 9/2/9 28/3/28
f  9/1/9 39/2/39 28/3/28
f  21/1/21 25/2/25 36/3/36
f  21/1/21 20/2/20 25/3/25
f  20/1/20 16/2/16 25/3/25
f  18/1/18 24/2/24 33/3/33
f  18/1/18 17/2/17 24/3/24
f  17/1/17 13/2/13 24/3/24
f  15/1/15 23/2/23 30/3/30
f  15/1/15 14/2/14 23/3/23
f  14/1/14 10/2/10 23/3/23
f  12/1/12 22/2/22 27/3/27
f  12/1/12 11/2/11 22/3/22
f  11/1/11 4/2/4 22/3/22
f  9/1/9 26/2/26 39/3/39
f  9/7/9 5/8/5 26/9/26
f  5/7/5 19/8/19 26/9/26
f  8/1/8 20/2/20 19/3/19
f  8/1/8 7/2/7 20/3/20
f  7/1/7 16/2/16 20/3/20
f  7/1/7 17/2/17 16/3/16
f  7/1/7 6/2/6 17/3/17
f  6/1/6 13/2/13 17/3/17
f  6/1/6 14/2/14 13/3/13
f  6/1/6 3/2/3 14/3/14
f  3/1/3 10/2/10 14/3/14
f  5/7/5 8/8/8 19/9/19
f  5/7/5 2/8/2 8/9/8
f  2/1/2 1/2/1 8/3/8
f  3/1/3 11/2/11 10/3/10
f  3/7/3 2/8/2 11/9/11
f  2/7/2 4/8/4 11/9/11
f  43/10/43 44/11/44 45/12/45
f  43/10/43 45/12/45 46/13/46
f  46/10/46 45/11/45 47/12/47
f  46/10/46 47/12/47 48/13/48
f  48/10/48 47/11/47 49/12/49
f  48/10/48 49/12/49 50/13/50
f  50/10/50 49/11/49 51/12/51
f  50/10/50 51/12/51 52/13/52
f  52/10/52 51/11/51 53/12/53
f  52/10/52 53/12/53 54/13/54
f  54/10/54 53/11/53 55/12/55
f  54/10/54 55/12/55 56/13/56
f  55/10/55 53/11/53 57/12/57
f  55/10/55 57/12/57 58/13/58
f  59/10/59 60/11/60 44/12/44
f  59/10/59 44/12/44 43/13/43
f  56/10/56 55/11/55 60/12/60
f  56/10/56 60/12/60 59/13/59
f  43/14/43 56/15/56 59/16/59
f  52/17/52 54/18/54 56/15/56
f  48/19/48 50/20/50 52/17/52
f  43/14/43 46/21/46 48/19/48
f  43/14/43 52/17/52 56/15/56
f  43/14/43 48/19/48 52/17/52
f  57/10/57 61/11/61 62/12/62
f  57/10/57 62/12/62 63/13/63
f  51/10/51 49/11/49 64/12/64
f  51/10/51 64/12/64 61/13/61
f  60/10/60 55/11/55 58/12/58
f  60/10/60 58/12/58 65/13/65
f  47/10/47 45/11/45 66/12/66
f  47/10/47 66/12/66 67/13/67
f  53/10/53 51/11/51 61/12/61
f  53/10/53 61/12/61 57/13/57
f  44/10/44 60/11/60 65/12/65
f  44/10/44 65/12/65 68/13/68
f  45/10/45 44/11/44 68/12/68
f  45/10/45 68/12/68 66/13/66
f  49/10/49 47/11/47 67/12/67
f  49/10/49 67/12/67 64/13/64
f  69/10/69 70/11/70 71/12/71
f  69/10/69 71/12/71 72/13/72
f  64/10/64 67/11/67 73/12/73
f  64/10/64 73/12/73 74/13/74
f  66/10/66 68/11/68 75/12/75
f  66/10/66 75/12/75 76/13/76
f  68/10/68 65/11/65 69/12/69
f  68/10/68 69/12/69 75/13/75
f  58/10/58 57/11/57 63/12/63
f  58/10/58 63/12/63 70/13/70
f  61/10/61 64/11/64 74/12/74
f  61/10/61 74/12/74 62/13/62
f  67/10/67 66/11/66 76/12/76
f  67/10/67 76/12/76 73/13/73
f  65/10/65 58/11/58 70/12/70
f  65/10/65 70/12/70 69/13/69
f  71/10/71 77/11/77 78/12/78
f  71/10/71 78/12/78 79/13/79
f  63/10/63 62/11/62 80/12/80
f  63/10/63 80/12/80 77/13/77
f  74/10/74 73/11/73 81/12/81
f  74/10/74 81/12/81 82/13/82
f  76/10/76 75/11/75 83/12/83
f  76/10/76 83/12/83 84/13/84
f  75/10/75 69/11/69 72/12/72
f  75/10/75 72/12/72 83/13/83
f  70/10/70 63/11/63 77/12/77
f  70/10/70 77/12/77 71/13/71
f  62/10/62 74/11/74 82/12/82
f  62/10/62 82/12/82 80/13/80
f  73/10/73 76/11/76 84/12/84
f  73/10/73 84/12/84 81/13/81
f  85/10/85 86/11/86 87/12/87
f  85/10/85 87/12/87 88/13/88
f  80/10/80 82/11/82 89/12/89
f  80/10/80 89/12/89 90/13/90
f  81/10/81 84/11/84 85/12/85
f  81/10/81 85/12/85 91/13/91
f  72/10/72 71/11/71 79/12/79
f  72/10/72 79/12/79 92/13/92
f  77/10/77 80/11/80 90/12/90
f  77/10/77 90/12/90 78/13/78
f  82/10/82 81/11/81 91/12/91
f  82/10/82 91/12/91 89/13/89
f  84/10/84 83/11/83 86/12/86
f  84/10/84 86/12/86 85/13/85
f  83/22/83 72/23/72 92/24/92
f  83/22/83 92/24/92 86/25/86
f  93/10/93 94/11/94 95/12/95
f  93/10/93 95/12/95 96/13/96
f  86/10/86 92/11/92 97/12/97
f  86/10/86 97/12/97 87/13/87
f  79/10/79 78/11/78 98/12/98
f  79/10/79 98/12/98 99/13/99
f  90/10/90 89/11/89 93/12/93
f  90/10/90 93/12/93 100/13/100
f  91/10/91 85/11/85 88/12/88
f  91/10/91 88/12/88 94/13/94
f  92/10/92 79/11/79 99/12/99
f  92/10/92 99/12/99 97/13/97
f  78/10/78 90/11/90 100/12/100
f  78/10/78 100/12/100 98/13/98
f  89/10/89 91/11/91 94/12/94
f  89/10/89 94/12/94 93/13/93
f  101/10/101 102/11/102 103/12/103
f  101/10/101 103/12/103 104/13/104
f  88/10/88 87/11/87 105/12/105
f  88/10/88 105/12/105 106/13/106
f  87/10/87 97/11/97 107/12/107
f  87/10/87 107/12/107 105/13/105
f  99/10/99 98/11/98 102/12/102
f  99/10/99 102/12/102 101/13/101
f  100/10/100 93/11/93 96/12/96
f  100/10/100 96/12/96 108/13/108
f  94/10/94 88/11/88 106/12/106
f  94/10/94 106/12/106 95/13/95
f  97/10/97 99/11/99 101/12/101
f  97/10/97 101/12/101 107/13/107
f  98/10/98 100/11/100 108/12/108
f  98/10/98 108/12/108 102/13/102
f  109/14/109 110/15/110 111/16/111
f  103/17/103 112/18/112 110/15/110
f  113/19/113 104/20/104 103/17/103
f  109/14/109 114/21/114 113/19/113
f  109/14/109 103/17/103 110/15/110
f  109/14/109 113/19/113 103/17/103
f  108/10/108 96/11/96 110/12/110
f  108/10/108 110/12/110 112/13/112
f  95/10/95 106/11/106 109/12/109
f  95/10/95 109/12/109 111/13/111
f  107/10/107 101/11/101 104/12/104
f  107/10/107 104/12/104 113/13/113
f  102/10/102 108/11/108 112/12/112
f  102/10/102 112/12/112 103/13/103
f  96/10/96 95/11/95 111/12/111
f  96/10/96 111/12/111 110/13/110
f  106/10/106 105/11/105 114/12/114
f  106/10/106 114/12/114 109/13/109
f  105/10/105 107/11/107 113/12/113
f  105/10/105 113/12/113 114/13/114
f  115/26/115 116/27/116 117/28/117
f  115/26/115 117/28/117 118/29/118
f  118/26/118 117/27/117 119/28/119
f  118/26/118 119/28/119 120/29/120
f  120/26/120 119/27/119 121/28/121
f  120/26/120 121/28/121 122/29/122
f  122/26/122 121/27/121 123/28/123
f  122/26/122 123/28/123 124/29/124
f  124/26/124 123/27/123 125/28/125
f  124/26/124 125/28/125 126/29/126
f  126/26/126 125/27/125 127/28/127
f  126/26/126 127/28/127 128/29/128
f  127/26/127 125/27/125 129/28/129
f  127/26/127 129/28/129 130/29/130
f  131/26/131 132/27/132 116/28/116
f  131/26/131 116/28/116 115/29/115
f  128/26/128 127/27/127 132/28/132
f  128/26/128 132/28/132 131/29/131
f  115/30/115 128/31/128 131/32/131
f  124/33/124 126/34/126 128/31/128
f  120/35/120 122/36/122 124/33/124
f  115/30/115 118/37/118 120/35/120
f  115/30/115 124/33/124 128/31/128
f  115/30/115 120/35/120 124/33/124
f  129/26/129 133/27/133 134/28/134
f  129/26/129 134/28/134 135/29/135
f  123/26/123 121/27/121 136/28/136
f  123/26/123 136/28/136 133/29/133
f  132/26/132 127/27/127 130/28/130
f  132/26/132 130/28/130 137/29/137
f  119/26/119 117/27/117 138/28/138
f  119/26/119 138/28/138 139/29/139
f  125/26/125 123/27/123 133/28/133
f  125/26/125 133/28/133 129/29/129
f  116/26/116 132/27/132 137/28/137
f  116/26/116 137/28/137 140/29/140
f  117/26/117 116/27/116 140/28/140
f  117/26/117 140/28/140 138/29/138
f  121/26/121 119/27/119 139/28/139
f  121/26/121 139/28/139 136/29/136
f  141/26/141 142/27/142 143/28/143
f  141/26/141 143/28/143 144/29/144
f  136/26/136 139/27/139 145/28/145
f  136/26/136 145/28/145 146/29/146
f  138/26/138 140/27/140 147/28/147
f  138/26/138 147/28/147 148/29/148
f  140/26/140 137/27/137 141/28/141
f  140/26/140 141/28/141 147/29/147
f  130/26/130 129/27/129 135/28/135
f  130/26/130 135/28/135 142/29/142
f  133/26/133 136/27/136 146/28/146
f  133/26/133 146/28/146 134/29/134
f  139/26/139 138/27/138 148/28/148
f  139/26/139 148/28/148 145/29/145
f  137/26/137 130/27/130 142/28/142
f  137/26/137 142/28/142 141/29/141
f  143/26/143 149/27/149 150/28/150
f  143/26/143 150/28/150 151/29/151
f  135/26/135 134/27/134 152/28/152
f  135/26/135 152/28/152 149/29/149
f  146/26/146 145/27/145 153/28/153
f  146/26/146 153/28/153 154/29/154
f  148/26/148 147/27/147 155/28/155
f  148/26/148 155/28/155 156/29/156
f  147/26/147 141/27/141 144/28/144
f  147/26/147 144/28/144 155/29/155
f  142/26/142 135/27/135 149/28/149
f  142/26/142 149/28/149 143/29/143
f  134/26/134 146/27/146 154/28/154
f  134/26/134 154/28/154 152/29/152
f  145/26/145 148/27/148 156/28/156
f  145/26/145 156/28/156 153/29/153
f  157/26/157 158/27/158 159/28/159
f  157/26/157 159/28/159 160/29/160
f  152/26/152 154/27/154 161/28/161
f  152/26/152 161/28/161 162/29/162
f  153/26/153 156/27/156 157/28/157
f  153/26/153 157/28/157 163/29/163
f  144/26/144 143/27/143 151/28/151
f  144/26/144 151/28/151 164/29/164
f  149/26/149 152/27/152 162/28/162
f  149/26/149 162/28/162 150/29/150
f  154/26/154 153/27/153 163/28/163
f  154/26/154 163/28/163 161/29/161
f  156/26/156 155/27/155 158/28/158
f  156/26/156 158/28/158 157/29/157
f  155/26/155 144/27/144 164/28/164
f  155/26/155 164/28/164 158/29/158
f  160/30/160 165/31/165 166/32/166
f  167/33/167 168/34/168 165/31/165
f  169/35/169 170/36/170 167/33/167
f  160/30/160 159/37/159 169/35/169
f  160/30/160 167/33/167 165/31/165
f  160/30/160 169/35/169 167/33/167
f  158/26/158 164/27/164 169/28/169
f  158/26/158 169/28/169 159/29/159
f  151/26/151 150/27/150 167/28/167
f  151/26/151 167/28/167 170/29/170
f  162/26/162 161/27/161 165/28/165
f  162/26/162 165/28/165 168/29/168
f  163/26/163 157/27/157 160/28/160
f  163/26/163 160/28/160 166/29/166
f  164/26/164 151/27/151 170/28/170
f  164/26/164 170/28/170 169/29/169
f  150/26/150 162/27/162 168/28/168
f  150/26/150 168/28/168 167/29/167
f  161/26/161 163/27/163 166/28/166
f  161/26/161 166/28/166 165/29/165
f  171/38/171 172/39/172 173/40/173
f  171/38/171 173/40/173 174/41/174
f  174/38/174 173/39/173 175/40/175
f  174/38/174 175/40/175 176/41/176
f  176/38/176 175/39/175 177/40/177
f  176/38/176 177/40/177 178/41/178
f  178/38/178 177/39/177 179/40/179
f  178/38/178 179/40/179 180/41/180
f  180/38/180 179/39/179 181/40/181
f  180/38/180 181/40/181 182/41/182
f  182/38/182 181/39/181 183/40/183
f  182/38/182 183/40/183 184/41/184
f  183/38/183 181/39/181 185/40/185
f  183/38/183 185/40/185 186/41/186
f  187/38/187 188/39/188 172/40/172
f  187/38/187 172/40/172 171/41/171
f  184/38/184 183/39/183 188/40/188
f  184/38/184 188/40/188 187/41/187
f  171/42/171 184/43/184 187/44/187
f  180/45/180 182/46/182 184/43/184
f  176/47/176 178/48/178 180/45/180
f  171/42/171 174/49/174 176/47/176
f  171/42/171 180/45/180 184/43/184
f  171/42/171 176/47/176 180/45/180
f  185/38/185 189/39/189 190/40/190
f  185/38/185 190/40/190 191/41/191
f  179/38/179 177/39/177 192/40/192
f  179/38/179 192/40/192 189/41/189
f  188/38/188 183/39/183 186/40/186
f  188/38/188 186/40/186 193/41/193
f  175/38/175 173/39/173 194/40/194
f  175/38/175 194/40/194 195/41/195
f  181/38/181 179/39/179 189/40/189
f  181/38/181 189/40/189 185/41/185
f  172/38/172 188/39/188 193/40/193
f  172/38/172 193/40/193 196/41/196
f  173/38/173 172/39/172 196/40/196
f  173/38/173 196/40/196 194/41/194
f  177/38/177 175/39/175 195/40/195
f  177/38/177 195/40/195 192/41/192
f  197/38/197 198/39/198 199/40/199
f  197/38/197 199/40/199 200/41/200
f  192/38/192 195/39/195 201/40/201
f  192/38/192 201/40/201 202/41/202
f  194/38/194 196/39/196 203/40/203
f  194/38/194 203/40/203 204/41/204
f  196/38/196 193/39/193 197/40/197
f  196/38/196 197/40/197 203/41/203
f  186/38/186 185/39/185 191/40/191
f  186/38/186 191/40/191 198/41/198
f  189/38/189 192/39/192 202/40/202
f  189/38/189 202/40/202 190/41/190
f  195/38/195 194/39/194 204/40/204
f  195/38/195 204/40/204 201/41/201
f  193/38/193 186/39/186 198/40/198
f  193/38/193 198/40/198 197/41/197
f  199/38/199 205/39/205 206/40/206
f  199/38/199 206/40/206 207/41/207
f  191/38/191 190/39/190 208/40/208
f  191/38/191 208/40/208 205/41/205
f  202/38/202 201/39/201 209/40/209
f  202/38/202 209/40/209 210/41/210
f  204/38/204 203/39/203 211/40/211
f  204/38/204 211/40/211 212/41/212
f  203/38/203 197/39/197 200/40/200
f  203/38/203 200/40/200 211/41/211
f  198/38/198 191/39/191 205/40/205
f  198/38/198 205/40/205 199/41/199
f  190/38/190 202/39/202 210/40/210
f  190/38/190 210/40/210 208/41/208
f  201/38/201 204/39/204 212/40/212
f  201/38/201 212/40/212 209/41/209
f  213/38/213 214/39/214 215/40/215
f  213/38/213 215/40/215 216/41/216
f  208/38/208 210/39/210 217/40/217
f  208/38/208 217/40/217 218/41/218
f  209/38/209 212/39/212 213/40/213
f  209/38/209 213/40/213 219/41/219
f  200/38/200 199/39/199 207/40/207
f  200/38/200 207/40/207 220/41/220
f  205/38/205 208/39/208 218/40/218
f  205/38/205 218/40/218 206/41/206
f  210/38/210 209/39/209 219/40/219
f  210/38/210 219/40/219 217/41/217
f  212/38/212 211/39/211 214/40/214
f  212/38/212 214/40/214 213/41/213
f  211/38/211 200/39/200 220/40/220
f  211/38/211 220/40/220 214/41/214
f  216/42/216 221/43/221 222/44/222
f  223/45/223 224/46/224 221/43/221
f  225/47/225 226/48/226 223/45/223
f  216/42/216 215/49/215 225/47/225
f  216/42/216 223/45/223 221/43/221
f  216/42/216 225/47/225 223/45/223
f  214/38/214 220/39/220 225/40/225
f  214/38/214 225/40/225 215/41/215
f  207/38/207 206/39/206 223/40/223
f  207/38/207 223/40/223 226/41/226
f  218/38/218 217/39/217 221/40/221
f  218/38/218 221/40/221 224/41/224
f  219/38/219 213/39/213 216/40/216
f  219/38/219 216/40/216 222/41/222
f  220/38/220 207/39/207 226/40/226
f  220/38/220 226/40/226 225/41/225
f  206/38/206 218/39/218 224/40/224
f  206/38/206 224/40/224 223/41/223
f  217/38/217 219/39/219 222/40/222
f  217/38/217 222/40/222 221/41/221
f  227/50/227 228/51/228 229/52/229
f  230/50/230 228/51/228 231/52/231
f  227/50/227 229/51/229 232/52/232
f  227/50/227 232/51/232 233/52/233
f  227/50/227 233/51/233 234/52/234
f  230/50/230 231/51/231 235/52/235
f  236/50/236 237/51/237 238/52/238
f  239/50/239 240/51/240 241/52/241
f  242/50/242 243/51/243 244/52/244
f  245/50/245 246/51/246 247/52/247
f  230/50/230 235/51/235 248/52/248
f  236/50/236 238/51/238 249/52/249
f  239/50/239 241/51/241 250/52/250
f  242/50/242 244/51/244 251/52/251
f  245/50/245 247/51/247 252/52/252
f  253/50/253 254/51/254 255/52/255
f  256/50/256 257/51/257 258/52/258
f  259/50/259 260/51/260 261/52/261
f  262/50/262 263/51/263 264/52/264
f  265/50/39 266/51/265 267/52/266
f  267/50/266 264/51/264 268/52/267
f  267/50/266 266/51/265 264/52/264
f  266/50/265 262/51/262 264/52/264
f  264/50/264 261/51/261 268/52/267
f  264/50/264 263/51/263 261/52/261
f  263/50/263 259/51/259 261/52/261
f  261/50/261 258/51/258 268/52/267
f  261/50/261 260/51/260 258/52/258
f  260/50/260 256/51/256 258/52/258
f  258/50/258 255/51/255 268/52/267
f  258/50/258 257/51/257 255/52/255
f  257/50/257 253/51/253 255/52/255
f  255/50/255 267/51/266 268/52/267
f  255/50/255 254/51/254 267/52/266
f  254/50/254 265/51/39 267/52/266
f  252/50/252 266/51/265 265/52/39
f  252/50/252 247/51/247 266/52/265
f  247/50/247 262/51/262 266/52/265
f  251/50/251 263/51/263 262/52/262
f  251/50/251 244/51/244 263/52/263
f  244/50/244 259/51/259 263/52/263
f  250/50/250 260/51/260 259/52/259
f  250/50/250 241/51/241 260/52/260
f  241/50/241 256/51/256 260/52/260
f  249/50/249 257/51/257 256/52/256
f  249/50/249 238/51/238 257/52/257
f  238/50/238 253/51/253 257/52/257
f  248/50/248 254/51/254 253/52/253
f  248/50/248 235/51/235 254/52/254
f  235/50/235 265/51/39 254/52/254
f  247/50/247 251/51/251 262/52/262
f  247/50/247 246/51/246 251/52/251
f  246/50/246 242/51/242 251/52/251
f  244/50/244 250/51/250 259/52/259
f  244/50/244 243/51/243 250/52/250
f  243/50/243 239/51/239 250/52/250
f  241/50/241 249/51/249 256/52/256
f  241/50/241 240/51/240 249/52/249
f  240/50/240 236/51/236 249/52/249
f  238/50/238 248/51/248 253/52/253
f  238/50/238 237/51/237 248/52/248
f  237/50/237 230/51/230 248/52/248
f  235/50/235 252/51/252 265/52/39
f  235/50/235 231/51/231 252/52/252
f  231/50/231 245/51/245 252/52/252
f  234/50/234 246/51/246 245/52/245
f  234/50/234 233/51/233 246/52/246
f  233/50/233 242/51/242 246/52/246
f  233/50/233 243/51/243 242/52/242
f  233/50/233 232/51/232 243/52/243
f  232/50/232 239/51/239 243/52/243
f  232/50/232 240/51/240 239/52/239
f  232/50/232 229/51/229 240/52/240
f  229/50/229 236/51/236 240/52/240
f  231/50/231 234/51/234 245/52/245
f  231/50/231 228/51/228 234/52/234
f  228/50/228 227/51/227 234/52/234
f  229/50/229 237/51/237 236/52/236
f  229/50/229 228/51/228 237/52/237
f  228/50/228 230/51/230 237/52/237
f  269/53/268 270/54/269 271/55/270
f  272/53/271 270/54/269 273/55/272
f  269/53/268 271/54/270 274/55/273
f  269/53/268 274/54/273 275/55/274
f  269/53/268 275/54/274 276/55/275
f  272/53/271 273/54/272 277/55/276
f  278/53/277 279/54/278 280/55/279
f  281/53/280 282/54/281 283/55/282
f  284/53/283 285/54/284 286/55/285
f  287/53/286 288/54/287 289/55/288
f  272/53/271 277/54/276 290/55/289
f  278/53/277 280/54/279 291/55/290
f  281/53/280 283/54/282 292/55/291
f  284/53/283 286/54/285 293/55/292
f  287/53/286 289/54/288 294/55/293
f  295/53/294 296/54/295 297/55/296
f  298/53/297 299/54/298 300/55/299
f  301/53/300 302/54/301 303/55/302
f  304/53/303 305/54/304 306/55/305
f  307/53/306 308/54/307 309/55/308
f  309/53/308 306/54/305 310/55/309
f  309/53/308 308/54/307 306/55/305
f  308/53/307 304/54/303 306/55/305
f  306/53/305 303/54/302 310/55/309
f  306/53/305 305/54/304 303/55/302
f  305/53/304 301/54/300 303/55/302
f  303/53/302 300/54/299 310/55/309
f  303/53/302 302/54/301 300/55/299
f  302/53/301 298/54/297 300/55/299
f  300/53/299 297/54/296 310/55/309
f  300/53/299 299/54/298 297/55/296
f  299/53/298 295/54/294 297/55/296
f  297/53/296 309/54/308 310/55/309
f  297/53/296 296/54/295 309/55/308
f  296/53/295 307/54/306 309/55/308
f  294/53/293 308/54/307 307/55/306
f  294/53/293 289/54/288 308/55/307
f  289/53/288 304/54/303 308/55/307
f  293/53/292 305/54/304 304/55/303
f  293/53/292 286/54/285 305/55/304
f  286/53/285 301/54/300 305/55/304
f  292/53/291 302/54/301 301/55/300
f  292/53/291 283/54/282 302/55/301
f  283/53/282 298/54/297 302/55/301
f  291/53/290 299/54/298 298/55/297
f  291/53/290 280/54/279 299/55/298
f  280/53/279 295/54/294 299/55/298
f  290/53/289 296/54/295 295/55/294
f  290/53/289 277/54/276 296/55/295
f  277/53/276 307/54/306 296/55/295
f  289/53/288 293/54/292 304/55/303
f  289/53/288 288/54/287 293/55/292
f  288/53/287 284/54/283 293/55/292
f  286/53/285 292/54/291 301/55/300
f  286/53/285 285/54/284 292/55/291
f  285/53/284 281/54/280 292/55/291
f  283/53/282 291/54/290 298/55/297
f  283/53/282 282/54/281 291/55/290
f  282/53/281 278/54/277 291/55/290
f  280/53/279 290/54/289 295/55/294
f  280/53/279 279/54/278 290/55/289
f  279/53/278 272/54/271 290/55/289
f  277/53/276 294/54/293 307/55/306
f  277/53/276 273/54/272 294/55/293
f  273/53/272 287/54/286 294/55/293
f  276/53/275 288/54/287 287/55/286
f  276/53/275 275/54/274 288/55/287
f  275/53/274 284/54/283 288/55/287
f  275/53/274 285/54/284 284/55/283
f  275/53/274 274/54/273 285/55/284
f  274/53/273 281/54/280 285/55/284
f  274/53/273 282/54/281 281/55/280
f  274/53/273 271/54/270 282/55/281
f  271/53/270 278/54/277 282/55/281
f  273/53/272 276/54/275 287/55/286
f  273/53/272 270/54/269 276/55/275
f  270/53/269 269/54/268 276/55/275
f  271/53/270 279/54/278 278/55/277
f  271/53/270 270/54/269 279/55/278
f  270/53/269 272/54/271 279/55/278
f  311/56/310 312/57/311 313/58/312
f  314/56/313 312/57/311 315/58/314
f  311/56/310 313/57/312 316/58/315
f  311/56/310 316/57/315 317/58/316
f  311/56/310 317/57/316 318/58/317
f  314/56/313 315/57/314 319/58/318
f  320/56/319 321/57/320 322/58/321
f  323/56/322 324/57/323 325/58/324
f  326/56/325 327/57/326 328/58/327
f  329/56/328 330/57/329 331/58/330
f  314/56/313 319/57/318 332/58/331
f  320/56/319 322/57/321 333/58/332
f  323/56/322 325/57/324 334/58/333
f  326/56/325 328/57/327 335/58/334
f  329/56/328 331/57/330 336/58/335
f  337/56/336 338/57/337 339/58/338
f  340/56/339 341/57/340 342/58/341
f  343/56/342 344/57/343 345/58/344
f  346/56/345 347/57/346 348/58/347
f  349/56/348 350/57/349 351/58/350
f  351/56/350 348/57/347 352/58/351
f  351/56/350 350/57/349 348/58/347
f  350/56/349 346/57/345 348/58/347
f  348/56/347 345/57/344 352/58/351
f  348/56/347 347/57/346 345/58/344
f  347/56/346 343/57/342 345/58/344
f  345/56/344 342/57/341 352/58/351
f  345/56/344 344/57/343 342/58/341
f  344/56/343 340/57/339 342/58/341
f  342/56/341 339/57/338 352/58/351
f  342/56/341 341/57/340 339/58/338
f  341/56/340 337/57/336 339/58/338
f  339/56/338 351/57/350 352/58/351
f  339/56/338 338/57/337 351/58/350
f  338/56/337 349/57/348 351/58/350
f  336/56/335 350/57/349 349/58/348
f  336/56/335 331/57/330 350/58/349
f  331/56/330 346/57/345 350/58/349
f  335/56/334 347/57/346 346/58/345
f  335/56/334 328/57/327 347/58/346
f  328/56/327 343/57/342 347/58/346
f  334/56/333 344/57/343 343/58/342
f  334/56/333 325/57/324 344/58/343
f  325/56/324 340/57/339 344/58/343
f  333/56/332 341/57/340 340/58/339
f  333/56/332 322/57/321 341/58/340
f  322/56/321 337/57/336 341/58/340
f  332/56/331 338/57/337 337/58/336
f  332/56/331 319/57/318 338/58/337
f  319/56/318 349/57/348 338/58/337
f  331/56/330 335/57/334 346/58/345
f  331/56/330 330/57/329 335/58/334
f  330/56/329 326/57/325 335/58/334
f  328/56/327 334/57/333 343/58/342
f  328/56/327 327/57/326 334/58/333
f  327/56/326 323/57/322 334/58/333
f  325/56/324 333/57/332 340/58/339
f  325/56/324 324/57/323 333/58/332
f  324/56/323 320/57/319 333/58/332
f  322/56/321 332/57/331 337/58/336
f  322/56/321 321/57/320 332/58/331
f  321/56/320 314/57/313 332/58/331
f  319/56/318 336/57/335 349/58/348
f  319/56/318 315/57/314 336/58/335
f  315/56/314 329/57/328 336/58/335
f  318/56/317 330/57/329 329/58/328
f  318/56/317 317/57/316 330/58/329
f  317/56/316 326/57/325 330/58/329
f  317/56/316 327/57/326 326/58/325
f  317/56/316 316/57/315 327/58/326
f  316/56/315 323/57/322 327/58/326
f  316/56/315 324/57/323 323/58/322
f  316/56/315 313/57/312 324/58/323
f  313/56/312 320/57/319 324/58/323
f  315/56/314 318/57/317 329/58/328
f  315/56/314 312/57/311 318/58/317
f  312/56/311 311/57/310 318/58/317
f  313/56/312 321/57/320 320/58/319
f  313/56/312 312/57/311 321/58/320
f  312/56/311 314/57/313 321/58/320
f  353/59/352 354/60/353 355/61/354
f  356/59/355 354/60/353 357/61/356
f  353/59/352 355/60/354 358/61/357
f  353/59/352 358/60/357 359/61/358
f  353/59/352 359/60/358 360/61/359
f  356/59/355 357/60/356 361/61/360
f  362/59/361 363/60/362 364/61/363
f  365/59/364 366/60/365 367/61/366
f  368/59/367 369/60/368 370/61/369
f  371/59/370 372/60/371 373/61/372
f  356/59/355 361/60/360 374/61/373
f  362/59/361 364/60/363 375/61/374
f  365/59/364 367/60/366 376/61/375
f  368/59/367 370/60/369 377/61/376
f  371/59/370 373/60/372 378/61/377
f  379/59/378 380/60/379 381/61/29
f  382/59/380 383/60/381 384/61/382
f  385/59/383 386/60/384 387/61/385
f  388/59/386 389/60/387 390/61/388
f  391/59/389 392/60/390 393/61/391
f  393/59/391 390/60/388 394/61/392
f  393/59/391 392/60/390 390/61/388
f  392/59/390 388/60/386 390/61/388
f  390/59/388 387/60/385 394/61/392
f  390/59/388 389/60/387 387/61/385
f  389/59/387 385/60/383 387/61/385
f  387/59/385 384/60/382 394/61/392
f  387/59/385 386/60/384 384/61/382
f  386/59/384 382/60/380 384/61/382
f  384/59/382 381/60/29 394/61/392
f  384/59/382 383/60/381 381/61/29
f  383/59/381 379/60/378 381/61/29
f  381/59/29 393/60/391 394/61/392
f  381/59/29 380/60/379 393/61/391
f  380/59/379 391/60/389 393/61/391
f  378/59/377 392/60/390 391/61/389
f  378/59/377 373/60/372 392/61/390
f  373/59/372 388/60/386 392/61/390
f  377/59/376 389/60/387 388/61/386
f  377/59/376 370/60/369 389/61/387
f  370/59/369 385/60/383 389/61/387
f  376/59/375 386/60/384 385/61/383
f  376/59/375 367/60/366 386/61/384
f  367/59/366 382/60/380 386/61/384
f  375/59/374 383/60/381 382/61/380
f  375/59/374 364/60/363 383/61/381
f  364/59/363 379/60/378 383/61/381
f  374/59/373 380/60/379 379/61/378
f  374/59/373 361/60/360 380/61/379
f  361/59/360 391/60/389 380/61/379
f  373/59/372 377/60/376 388/61/386
f  373/59/372 372/60/371 377/61/376
f  372/59/371 368/60/367 377/61/376
f  370/59/369 376/60/375 385/61/383
f  370/59/369 369/60/368 376/61/375
f  369/59/368 365/60/364 376/61/375
f  367/59/366 375/60/374 382/61/380
f  367/59/366 366/60/365 375/61/374
f  366/59/365 362/60/361 375/61/374
f  364/59/363 374/60/373 379/61/378
f  364/59/363 363/60/362 374/61/373
f  363/59/362 356/60/355 374/61/373
f  361/59/360 378/60/377 391/61/389
f  361/59/360 357/60/356 378/61/377
f  357/59/356 371/60/370 378/61/377
f  360/59/359 372/60/371 371/61/370
f  360/59/359 359/60/358 372/61/371
f  359/59/358 368/60/367 372/61/371
f  359/59/358 369/60/368 368/61/367
f  359/59/358 358/60/357 369/61/368
f  358/59/357 365/60/364 369/61/368
f  358/59/357 366/60/365 365/61/364
f  358/59/357 355/60/354 366/61/365
f  355/59/354 362/60/361 366/61/365
f  357/59/356 360/60/359 371/61/370
f  357/59/356 354/60/353 360/61/359
f  354/59/353 353/60/352 360/61/359
f  355/59/354 363/60/362 362/61/361
f  355/59/354 354/60/353 363/61/362
f  354/59/353 356/60/355 363/61/362

